<svg width="20" height="20" viewBox="0 0 20 20" fill="none" xmlns="http://www.w3.org/2000/svg">
<path fill-rule="evenodd" clip-rule="evenodd" d="M9.54171 1.52081C5.11192 1.52081 1.52087 5.11186 1.52087 9.54165C1.52087 13.9714 5.11192 17.5625 9.54171 17.5625C13.9715 17.5625 17.5625 13.9714 17.5625 9.54165C17.5625 5.11186 13.9715 1.52081 9.54171 1.52081ZM0.145874 9.54165C0.145874 4.35247 4.35253 0.145813 9.54171 0.145813C14.7309 0.145813 18.9375 4.35247 18.9375 9.54165C18.9375 14.7308 14.7309 18.9375 9.54171 18.9375C4.35253 18.9375 0.145874 14.7308 0.145874 9.54165ZM16.8472 16.8472C17.1157 16.5787 17.551 16.5787 17.8195 16.8472L19.6528 18.6805C19.9213 18.949 19.9213 19.3843 19.6528 19.6528C19.3844 19.9213 18.9491 19.9213 18.6806 19.6528L16.8472 17.8195C16.5788 17.551 16.5788 17.1157 16.8472 16.8472Z" fill="#2D2D2B"/>
</svg>
